# https://github.com/mikedh/trimesh
mtllib material.mtl
usemtl light_mat
v 0.48500000 0.02153921 1.49282287
v -0.48500000 0.02153921 1.49282291
v 0.48500000 0.01421688 1.47514520
v -0.48500000 0.01421688 1.47514524
v 0.48500000 0.03921688 1.50014520
v -0.48500000 0.03921688 1.50014524
v -0.48500000 0.06421688 1.47514524
v 0.48500000 0.06421688 1.47514520
v 0.48500000 0.05689455 1.45746753
v -0.48500000 0.05689455 1.45746757
v -0.48500000 0.03921688 1.45014524
v 0.48500000 0.03921688 1.45014520
v 0.48500000 0.02153921 1.45746753
v -0.48500000 0.02153921 1.45746757
v 0.60279162 -0.19693859 1.39977618
v 0.60279162 0.19693860 1.39977618
v 0.56539892 0.16895934 1.43370711
v 0.56539892 -0.16896796 1.43370710
v 0.44586340 -0.08210720 1.57759359
v 0.42436591 0.06752611 1.61691757
v 0.42436591 -0.06752611 1.61691757
v 0.44586340 0.08210720 1.57759359
v 0.00000000 -0.08446714 1.57830657
v 0.44324774 -0.08491748 1.57719964
v 0.42163916 -0.07021064 1.61676773
v 0.00000001 -0.07021064 1.61676773
v 0.53274780 -0.14461049 1.46398774
v 0.53274780 0.14461050 1.46398775
v 0.50045862 0.12094593 1.49917135
v 0.50045862 -0.12094592 1.49917135
v 0.47167926 0.10030512 1.53676099
v 0.47167926 -0.10030513 1.53676098
v 0.57488195 -0.16884218 1.39822684
v 0.45775757 0.08115314 1.53393885
v 0.57488195 0.16884220 1.39822684
v 0.45775757 -0.08115316 1.53393885
v 0.60486681 0.19883407 1.39560622
v 0.60486681 -0.19883405 1.39560622
v 0.60587731 -0.19954256 1.38436279
v 0.60587731 0.19954258 1.38436279
v 0.57591527 0.16956953 1.38436590
v 0.57591527 -0.16956951 1.38436590
v 0.57488195 -0.16884218 1.39822684
v 0.57488195 0.16884220 1.39822684
v 0.42316797 -0.06684173 1.62161188
v 0.42316797 0.06684174 1.63105472
v 0.42316797 -0.06684173 1.63105472
v 0.42316797 0.06684174 1.62161188
v 0.44324774 0.08491747 1.57719964
v 0.00000000 0.08446714 1.57830657
v 0.42163916 0.07021065 1.61676773
v 0.00000001 0.07021065 1.61676773
v -0.00000000 -0.14682669 1.46480976
v 0.52997802 -0.14775243 1.46355361
v 0.49781170 -0.12378306 1.49890124
v 0.00000000 -0.12329120 1.49970791
v -0.00000000 0.19970441 1.38187282
v 0.60006554 0.19970441 1.38187283
v 0.57506554 0.17470441 1.38187282
v -0.00000000 0.17470441 1.38187282
v 0.60006554 -0.19970440 1.38187283
v -0.00000000 -0.19970440 1.38187282
v 0.57506554 -0.17470440 1.38187282
v -0.00000000 -0.17470440 1.38187282
v 0.60360107 0.19616888 1.38187283
v 0.60360107 -0.19616886 1.38187283
v 0.57860107 -0.17116886 1.38187282
v 0.57860107 0.17116888 1.38187282
v 0.00000000 0.08021551 1.53583147
v 0.45362414 0.08021551 1.53583146
v 0.45362414 -0.08021553 1.53583146
v 0.00000000 -0.08021553 1.53583147
v 0.36061396 0.00684881 1.63355472
v 0.42066797 -0.06684173 1.63355472
v 0.42066797 0.06684174 1.63355472
v 0.36061396 -0.00684881 1.63355472
v 0.34654914 0.00689870 1.63355472
v 0.00000001 0.06684174 1.63355472
v 0.00000001 -0.06684173 1.63355472
v 0.34654914 -0.00689871 1.63355472
v 0.00000000 -0.10268488 1.53726918
v 0.46920245 -0.10327153 1.53608447
v -0.00000000 -0.19959157 1.40002501
v 0.59923595 -0.19959157 1.40002501
v 0.56211743 -0.17181753 1.43370710
v -0.00000000 -0.17181753 1.43370710
v 0.46920245 0.10327152 1.53608447
v 0.00000000 0.10268488 1.53726918
v 0.49781170 0.12378307 1.49890124
v 0.00000000 0.12329121 1.49970791
v -0.00000000 0.17134220 1.39822684
v 0.57238195 0.17134220 1.39822684
v 0.45484936 0.08406920 1.53372968
v 0.00000000 0.08406920 1.53372968
v 0.60235729 0.20133930 1.39560114
v -0.00000000 0.20204719 1.38436787
v -0.00000000 0.20133930 1.39560115
v 0.60336681 0.20204719 1.38436787
v 0.57238195 -0.17134218 1.39822684
v -0.00000000 -0.17207278 1.38436936
v -0.00000000 -0.17134218 1.39822684
v 0.57340807 -0.17207278 1.38436936
v 0.42066797 -0.06934173 1.62161188
v 0.00000001 -0.06934173 1.63105472
v 0.00000001 -0.06934173 1.62161188
v 0.42066797 -0.06934173 1.63105472
v 0.36061392 -0.00684881 2.24647058
v 0.36061396 -0.00684881 1.63355472
v 0.36061392 0.00684881 2.24647058
v 0.36061396 0.00684881 1.63355472
v 0.34654914 0.00689870 1.63355472
v 0.36061392 0.00684881 2.24647058
v 0.36061396 0.00684881 1.63355472
v 0.34654910 0.00689870 2.24647058
v 0.34654914 -0.00689871 1.63355472
v 0.34654910 -0.00689871 2.24647058
v 0.34654914 0.00689870 1.63355472
v 0.34654910 0.00689870 2.24647058
v 0.36061392 -0.00684881 2.24647058
v 0.34654914 -0.00689871 1.63355472
v 0.36061396 -0.00684881 1.63355472
v 0.34654910 -0.00689871 2.24647058
v -0.48500000 -0.06421688 1.47514524
v 0.48500000 -0.06421688 1.47514520
v 0.48500000 -0.05785126 1.49051317
v -0.48500000 -0.05785126 1.49051321
v 0.48500000 -0.05689455 1.45746753
v -0.48500000 -0.05689455 1.45746757
v -0.48500000 -0.03921688 1.45014524
v 0.48500000 -0.03921688 1.45014520
v 0.52997802 0.14775243 1.46355361
v -0.00000000 0.14682670 1.46480976
v 0.59923595 0.19959159 1.40002501
v -0.00000000 0.19959159 1.40002501
v 0.56213586 0.17181751 1.43370711
v -0.00000000 0.17181751 1.43370711
v 0.57238195 -0.17134218 1.39822684
v -0.00000000 -0.17134218 1.39822684
v 0.45484930 -0.08406922 1.53372968
v 0.00000000 -0.08406922 1.53372968
v 0.60235729 -0.20133929 1.39560114
v -0.00000000 -0.20204717 1.38436787
v 0.60336681 -0.20204717 1.38436787
v -0.00000000 -0.20133929 1.39560115
v 0.57238195 0.17134220 1.39822684
v -0.00000000 0.17207279 1.38436936
v 0.57340807 0.17207279 1.38436936
v -0.00000000 0.17134220 1.39822684
v 0.42066797 0.06934174 1.62161188
v 0.00000001 0.06934174 1.63105472
v 0.42066797 0.06934174 1.63105472
v 0.00000001 0.06934174 1.62161188
v 0.48500000 0.05689455 1.49282287
v -0.48500000 0.05689455 1.49282291
v 0.48500000 0.05689455 1.49282287
v -0.48500000 0.05689455 1.49282291
v -0.60279168 0.19693860 1.39977623
v -0.56539892 -0.16895936 1.43370715
v -0.56539892 0.16896795 1.43370716
v -0.60279168 -0.19693859 1.39977623
v -0.42436590 -0.06752611 1.61691761
v -0.44586340 0.08210720 1.57759363
v -0.44586339 -0.08210720 1.57759363
v -0.42436590 0.06752611 1.61691761
v -0.42163919 -0.07021064 1.61676777
v -0.44324774 -0.08491747 1.57719967
v -0.53274778 0.14461050 1.46398779
v -0.53274778 -0.14461049 1.46398779
v -0.50045860 0.12094593 1.49917139
v -0.50045860 -0.12094593 1.49917139
v -0.47167923 0.10030514 1.53676102
v -0.47167923 -0.10030513 1.53676103
v -0.57488196 -0.16884218 1.39822689
v -0.45775754 0.08115314 1.53393889
v -0.45775754 -0.08115316 1.53393889
v -0.57488196 0.16884220 1.39822689
v -0.60587730 -0.19954256 1.38436285
v -0.60486684 0.19883407 1.39560628
v -0.60587730 0.19954258 1.38436285
v -0.60486684 -0.19883405 1.39560628
v -0.57591523 -0.16956951 1.38436595
v -0.57591523 0.16956953 1.38436595
v -0.57488196 -0.16884218 1.39822689
v -0.57488196 0.16884220 1.39822689
v -0.42316797 -0.06684173 1.63105475
v -0.42316797 0.06684174 1.63105475
v -0.42316797 -0.06684173 1.62161191
v -0.42316797 0.06684174 1.62161191
v -0.42163919 0.07021064 1.61676777
v -0.44324774 0.08491747 1.57719967
v -0.49781172 -0.12378306 1.49890128
v -0.52997805 -0.14775243 1.46355366
v -0.00000000 0.17470441 1.38187282
v -0.57506554 0.17470441 1.38187287
v -0.00000000 0.19970441 1.38187282
v -0.60006554 0.19970441 1.38187288
v -0.57506554 -0.17470440 1.38187287
v -0.00000000 -0.17470440 1.38187282
v -0.60006554 -0.19970440 1.38187288
v -0.60360107 -0.19616886 1.38187288
v -0.60360107 0.19616888 1.38187288
v -0.57860107 -0.17116886 1.38187287
v -0.57860107 0.17116888 1.38187287
v -0.45362414 -0.08021553 1.53583150
v -0.45362414 0.08021551 1.53583150
v -0.36061394 0.00684881 1.63355475
v -0.42066797 -0.06684173 1.63355475
v -0.36061394 -0.00684881 1.63355475
v -0.42066797 0.06684174 1.63355475
v -0.34654912 0.00689870 1.63355475
v -0.34654912 -0.00689871 1.63355475
v -0.46920246 -0.10327153 1.53608450
v -0.56213588 -0.17181753 1.43370715
v -0.59923596 -0.19959157 1.40002506
v -0.46920246 0.10327152 1.53608451
v -0.49781172 0.12378307 1.49890128
v -0.45484932 0.08406920 1.53372972
v -0.57238196 0.17134220 1.39822689
v -0.00000000 0.20204719 1.38436787
v -0.60235726 0.20133930 1.39560120
v -0.60336681 0.20204719 1.38436793
v -0.00000000 -0.17207278 1.38436936
v -0.57238196 -0.17134218 1.39822689
v -0.00000000 -0.17134218 1.39822684
v -0.57340805 -0.17207278 1.38436941
v -0.42066797 -0.06934173 1.62161191
v -0.42066797 -0.06934173 1.63105475
v -0.36061386 0.00684881 2.24647061
v -0.36061394 0.00684881 1.63355475
v -0.36061394 -0.00684881 1.63355475
v -0.36061386 -0.00684881 2.24647061
v -0.34654912 0.00689870 1.63355475
v -0.36061386 0.00684881 2.24647061
v -0.34654904 0.00689870 2.24647061
v -0.36061394 0.00684881 1.63355475
v -0.34654904 -0.00689871 2.24647061
v -0.34654912 0.00689870 1.63355475
v -0.34654904 0.00689870 2.24647061
v -0.34654912 -0.00689871 1.63355475
v -0.34654912 -0.00689871 1.63355475
v -0.34654904 -0.00689871 2.24647061
v -0.36061386 -0.00684881 2.24647061
v -0.36061394 -0.00684881 1.63355475
v -0.48500000 -0.02153921 1.49282291
v 0.48500000 -0.02153921 1.49282287
v 0.48500000 -0.01421688 1.47514520
v -0.48500000 -0.01421688 1.47514524
v -0.48500000 -0.03921688 1.50014524
v 0.48500000 -0.03921688 1.50014520
v 0.48500000 -0.02153921 1.49282287
v -0.48500000 -0.02153921 1.49282291
v -0.48500000 -0.05458485 1.49377962
v 0.48500000 -0.05458485 1.49377958
v 0.48500000 -0.03921688 1.50014520
v -0.48500000 -0.03921688 1.50014524
v 0.48500000 -0.02153921 1.45746753
v -0.48500000 -0.02153921 1.45746757
v -0.52997805 0.14775243 1.46355365
v -0.56211740 0.17181751 1.43370716
v -0.59923597 0.19959159 1.40002506
v -0.45484932 -0.08406922 1.53372972
v -0.57238196 -0.17134218 1.39822689
v -0.60235726 -0.20133929 1.39560120
v -0.60336681 -0.20204717 1.38436793
v -0.00000000 0.17207279 1.38436936
v -0.57238196 0.17134220 1.39822689
v -0.57340805 0.17207279 1.38436941
v -0.00000000 0.17134220 1.39822684
v -0.42066797 0.06934174 1.62161191
v -0.42066797 0.06934174 1.63105475
v 0.60201879 0.19911773 1.39973313
v 0.60423608 0.19828420 1.39789370
v 0.60353027 0.20022401 1.39793188
v 0.60423608 -0.19828419 1.39789370
v 0.60201879 -0.19911771 1.39973313
v 0.60353027 -0.20022399 1.39793188
v 0.42346747 0.06701282 1.61918829
v 0.42274030 0.06882104 1.61918161
v 0.42365485 0.06949179 1.61693393
v 0.42274030 -0.06882103 1.61918161
v 0.42346747 -0.06701282 1.61918829
v 0.42365485 -0.06949178 1.61693394
v 0.42274030 -0.06882103 1.61918161
v 0.42365485 -0.06949178 1.61693394
v 0.42091077 -0.06955896 1.61915085
v 0.45573096 -0.08221822 1.53509810
v 0.45694788 -0.08321120 1.53398227
v 0.45590747 -0.08044994 1.53535831
v 0.45573096 0.08221820 1.53509810
v 0.45694788 0.08321117 1.53398227
v 0.45590747 0.08044991 1.53535831
v 0.60353027 -0.20022399 1.39793188
v 0.60423608 -0.19828419 1.39789370
v 0.60423925 -0.20071267 1.39560740
v 0.60524987 -0.20142133 1.38436162
v 0.60481969 -0.20093856 1.38242857
v 0.60542016 -0.19878005 1.38249532
v 0.60524987 0.20142135 1.38436162
v 0.60481969 0.20093857 1.38242857
v 0.60542016 0.19878007 1.38249532
v 0.60353027 0.20022401 1.39793188
v 0.60423608 0.19828420 1.39789370
v 0.60423925 0.20071268 1.39560740
v 0.57667968 0.17003681 1.38249609
v 0.57528857 0.17144715 1.38436504
v 0.57595202 0.17206718 1.38239871
v 0.57528857 -0.17144713 1.38436504
v 0.57667968 -0.17003680 1.38249609
v 0.57595202 -0.17206716 1.38239870
v 0.42254297 0.06871674 1.62161188
v 0.42346747 0.06701282 1.61918829
v 0.42274030 0.06882104 1.61918161
v 0.42223047 0.06840423 1.63261722
v 0.42254297 0.06684174 1.63292972
v 0.42254297 0.06871674 1.63105472
v 0.42223047 -0.06840422 1.63261722
v 0.42254297 -0.06684173 1.63292972
v 0.42254297 -0.06871673 1.63105472
v 0.42254297 -0.06871673 1.62161188
v 0.42346747 -0.06701282 1.61918829
v 0.42274030 -0.06882103 1.61918161
v 0.42274030 0.06882104 1.61918161
v 0.42365485 0.06949179 1.61693393
v 0.42091077 0.06955897 1.61915085
v 0.60265868 0.20154011 1.38249659
v 0.60308324 0.19918665 1.38187283
v 0.60481969 0.20093857 1.38242857
v 0.57595202 0.17206718 1.38239871
v 0.57391894 0.17279652 1.38249696
v 0.57735107 0.17345441 1.38187282
v 0.57595202 -0.17206716 1.38239870
v 0.57391894 -0.17279650 1.38249696
v 0.57735107 -0.17345440 1.38187282
v 0.60308324 -0.19918664 1.38187283
v 0.60265868 -0.20154009 1.38249659
v 0.60481969 -0.20093856 1.38242857
v 0.57667968 0.17003681 1.38249609
v 0.60542016 0.19878007 1.38249532
v 0.60542016 -0.19878005 1.38249532
v 0.57667968 -0.17003680 1.38249609
v 0.45590747 0.08044991 1.53535831
v 0.45393042 0.08242893 1.53530602
v 0.45573096 0.08221820 1.53509810
v 0.45590747 -0.08044994 1.53535831
v 0.45393042 -0.08242895 1.53530602
v 0.45573096 -0.08221822 1.53509810
v 0.60146984 -0.20082375 1.39795463
v 0.60201879 -0.19911771 1.39973313
v 0.60353027 -0.20022399 1.39793188
v 0.45573096 0.08221820 1.53509810
v 0.45393042 0.08242893 1.53530602
v 0.45694788 0.08321117 1.53398227
v 0.60353027 0.20022401 1.39793188
v 0.60423925 0.20071268 1.39560740
v 0.60146984 0.20082377 1.39795463
v 0.60481969 0.20093857 1.38242857
v 0.60524987 0.20142135 1.38436162
v 0.60265868 0.20154011 1.38249659
v 0.57528857 -0.17144713 1.38436504
v 0.57391894 -0.17279650 1.38249696
v 0.57595202 -0.17206716 1.38239870
v 0.42254297 -0.06871673 1.62161188
v 0.42091077 -0.06955896 1.61915085
v 0.42274030 -0.06882103 1.61918161
v 0.42223047 -0.06840422 1.63261722
v 0.42254297 -0.06871673 1.63105472
v 0.42066797 -0.06871673 1.63292972
v 0.60146984 0.20082377 1.39795463
v 0.60201879 0.19911773 1.39973313
v 0.60353027 0.20022401 1.39793188
v 0.45573096 -0.08221822 1.53509810
v 0.45393042 -0.08242895 1.53530602
v 0.45694788 -0.08321120 1.53398227
v 0.60481969 -0.20093856 1.38242857
v 0.60524987 -0.20142133 1.38436162
v 0.60265868 -0.20154009 1.38249659
v 0.60353027 -0.20022399 1.39793188
v 0.60423925 -0.20071267 1.39560740
v 0.60146984 -0.20082375 1.39795463
v 0.57528857 0.17144715 1.38436504
v 0.57391894 0.17279652 1.38249696
v 0.57595202 0.17206718 1.38239871
v 0.42223047 0.06840423 1.63261722
v 0.42254297 0.06871674 1.63105472
v 0.42066797 0.06871674 1.63292972
v 0.42254297 0.06871674 1.62161188
v 0.42091077 0.06955897 1.61915085
v 0.42274030 0.06882104 1.61918161
v -0.60201875 0.19911773 1.39973318
v -0.60423616 0.19828420 1.39789375
v -0.60353027 0.20022399 1.39793194
v -0.60423616 -0.19828419 1.39789375
v -0.60201875 -0.19911771 1.39973318
v -0.60353028 -0.20022397 1.39793194
v -0.42365484 0.06949179 1.61693396
v -0.42274031 0.06882104 1.61918165
v -0.42346745 0.06701282 1.61918833
v -0.42365484 -0.06949178 1.61693396
v -0.42274032 -0.06882103 1.61918165
v -0.42346745 -0.06701282 1.61918833
v -0.42091078 -0.06955896 1.61915088
v -0.42274032 -0.06882103 1.61918165
v -0.42365484 -0.06949178 1.61693396
v -0.45590749 0.08044991 1.53535835
v -0.45573098 0.08221821 1.53509814
v -0.45694787 0.08321117 1.53398231
v -0.45573098 -0.08221822 1.53509814
v -0.45590749 -0.08044994 1.53535835
v -0.45694787 -0.08321120 1.53398231
v -0.60423923 -0.20071267 1.39560745
v -0.60353028 -0.20022397 1.39793194
v -0.60423616 -0.19828419 1.39789375
v -0.60423923 0.20071268 1.39560745
v -0.60353027 0.20022399 1.39793194
v -0.60423616 0.19828420 1.39789375
v -0.60481974 0.20093856 1.38242862
v -0.60542013 0.19878007 1.38249537
v -0.60524989 0.20142135 1.38436167
v -0.60481974 -0.20093856 1.38242862
v -0.60542013 -0.19878005 1.38249537
v -0.60524989 -0.20142133 1.38436167
v -0.57528856 -0.17144713 1.38436509
v -0.57667961 -0.17003680 1.38249614
v -0.57595200 -0.17206716 1.38239876
v -0.57667961 0.17003681 1.38249614
v -0.57528856 0.17144715 1.38436509
v -0.57595200 0.17206719 1.38239876
v -0.42346745 0.06701282 1.61918833
v -0.42254297 0.06871674 1.62161191
v -0.42274031 0.06882104 1.61918165
v -0.42346745 -0.06701282 1.61918833
v -0.42254297 -0.06871673 1.62161191
v -0.42274032 -0.06882103 1.61918165
v -0.42254297 -0.06871673 1.63105475
v -0.42223047 -0.06840423 1.63261725
v -0.42254297 -0.06684173 1.63292975
v -0.42254297 0.06871674 1.63105475
v -0.42223047 0.06840424 1.63261725
v -0.42254297 0.06684174 1.63292975
v -0.42365484 0.06949179 1.61693396
v -0.42274031 0.06882104 1.61918165
v -0.42091078 0.06955897 1.61915088
v -0.60265862 0.20154011 1.38249664
v -0.60308330 0.19918665 1.38187288
v -0.60481974 0.20093856 1.38242862
v -0.57735107 0.17345441 1.38187287
v -0.57595200 0.17206719 1.38239876
v -0.57391893 0.17279652 1.38249701
v -0.57735107 -0.17345440 1.38187287
v -0.57595200 -0.17206716 1.38239876
v -0.57391893 -0.17279650 1.38249701
v -0.60308330 -0.19918664 1.38187288
v -0.60265862 -0.20154009 1.38249664
v -0.60481974 -0.20093856 1.38242862
v -0.57667961 0.17003681 1.38249614
v -0.57667961 -0.17003680 1.38249614
v -0.60542013 -0.19878005 1.38249537
v -0.60542013 0.19878007 1.38249537
v -0.45393043 0.08242893 1.53530606
v -0.45590749 0.08044991 1.53535835
v -0.45573098 0.08221821 1.53509814
v -0.45393043 -0.08242895 1.53530606
v -0.45590749 -0.08044994 1.53535835
v -0.45573098 -0.08221822 1.53509814
v -0.60146984 -0.20082375 1.39795468
v -0.60201875 -0.19911771 1.39973318
v -0.60353028 -0.20022397 1.39793194
v -0.45694787 0.08321117 1.53398231
v -0.45573098 0.08221821 1.53509814
v -0.45393043 0.08242893 1.53530606
v -0.60423923 0.20071268 1.39560745
v -0.60353027 0.20022399 1.39793194
v -0.60146984 0.20082377 1.39795468
v -0.60265862 0.20154011 1.38249664
v -0.60481974 0.20093856 1.38242862
v -0.60524989 0.20142135 1.38436167
v -0.57391893 -0.17279650 1.38249701
v -0.57528856 -0.17144713 1.38436509
v -0.57595200 -0.17206716 1.38239876
v -0.42091078 -0.06955896 1.61915088
v -0.42254297 -0.06871673 1.62161191
v -0.42274032 -0.06882103 1.61918165
v -0.42066797 -0.06871673 1.63292975
v -0.42223047 -0.06840423 1.63261725
v -0.42254297 -0.06871673 1.63105475
v -0.60201875 0.19911773 1.39973318
v -0.60146984 0.20082377 1.39795468
v -0.60353027 0.20022399 1.39793194
v -0.45694787 -0.08321120 1.53398231
v -0.45573098 -0.08221822 1.53509814
v -0.45393043 -0.08242895 1.53530606
v -0.60146984 -0.20082375 1.39795468
v -0.60353028 -0.20022397 1.39793194
v -0.60423923 -0.20071267 1.39560745
v -0.60265862 -0.20154009 1.38249664
v -0.60481974 -0.20093856 1.38242862
v -0.60524989 -0.20142133 1.38436167
v -0.57391893 0.17279652 1.38249701
v -0.57528856 0.17144715 1.38436509
v -0.57595200 0.17206719 1.38239876
v -0.42091078 0.06955897 1.61915088
v -0.42254297 0.06871674 1.62161191
v -0.42274031 0.06882104 1.61918165
v -0.42066797 0.06871674 1.63292975
v -0.42223047 0.06840424 1.63261725
v -0.42254297 0.06871674 1.63105475
v 0.56458312 0.17110299 1.43370711
v 0.56457861 -0.17110514 1.43370710
v 0.44500000 -0.08398975 1.57785159
v 0.44500000 0.08398975 1.57785159
v 0.00000001 -0.06955896 1.61915083
v 0.44500000 -0.08398975 1.57785159
v 0.53164758 0.14650408 1.46429022
v 0.53164758 -0.14650407 1.46429022
v 0.49957251 0.12282786 1.49937210
v 0.49957251 -0.12282786 1.49937211
v 0.47088342 -0.10223661 1.53684595
v 0.47088342 0.10223661 1.53684595
v 0.57425695 -0.17071718 1.39822684
v 0.57425695 0.17071720 1.39822684
v 0.57425695 0.17071720 1.39822684
v 0.57425695 -0.17071718 1.39822684
v 0.44500000 0.08398975 1.57785159
v 0.00000001 0.06955897 1.61915083
v 0.49957251 -0.12282786 1.49937211
v 0.53164758 -0.14650407 1.46429022
v -0.00000000 0.17279652 1.38249695
v -0.00000000 0.20154011 1.38249659
v -0.00000000 -0.20154009 1.38249658
v -0.00000000 -0.17279650 1.38249695
v 0.00000000 -0.08242895 1.53530602
v 0.00000000 0.08242893 1.53530602
v 0.42254297 -0.06684173 1.63292972
v 0.42254297 0.06684174 1.63292972
v 0.42066797 0.06871674 1.63292972
v 0.00000001 0.06884528 1.63305826
v 0.42066797 -0.06871673 1.63292972
v 0.00000001 -0.06884527 1.63305827
v 0.47088342 -0.10223661 1.53684595
v 0.56457861 -0.17110514 1.43370710
v -0.00000000 -0.20082375 1.39795464
v 0.47088342 0.10223661 1.53684595
v 0.49957251 0.12282786 1.49937210
v 0.57425695 0.17071720 1.39822684
v 0.00000000 0.08242893 1.53530602
v -0.00000000 0.20154011 1.38249659
v -0.00000000 0.20082377 1.39795464
v 0.57425695 -0.17071718 1.39822684
v -0.00000000 -0.17279650 1.38249695
v 0.00000001 -0.06884527 1.63305827
v 0.00000001 -0.06955896 1.61915083
v 0.48500000 -0.05655630 1.49248462
v -0.48500000 -0.05655630 1.49248466
v 0.53164758 0.14650408 1.46429022
v 0.56458312 0.17110299 1.43370711
v -0.00000000 0.20082377 1.39795464
v 0.00000000 -0.08242895 1.53530602
v 0.57425695 -0.17071718 1.39822684
v -0.00000000 -0.20154009 1.38249658
v -0.00000000 -0.20082375 1.39795464
v -0.00000000 0.17279652 1.38249695
v 0.57425695 0.17071720 1.39822684
v 0.00000001 0.06884528 1.63305826
v 0.00000001 0.06955897 1.61915083
v -0.56458316 -0.17110299 1.43370715
v -0.56457854 0.17110512 1.43370716
v -0.44500004 0.08398974 1.57785163
v -0.44500004 -0.08398974 1.57785163
v -0.44500004 -0.08398974 1.57785163
v -0.53164758 -0.14650407 1.46429026
v -0.53164758 0.14650408 1.46429026
v -0.49957249 -0.12282784 1.49937215
v -0.49957249 0.12282786 1.49937214
v -0.47088341 0.10223661 1.53684599
v -0.47088341 -0.10223661 1.53684599
v -0.57425696 0.17071720 1.39822689
v -0.57425696 -0.17071718 1.39822689
v -0.57425696 -0.17071718 1.39822689
v -0.57425696 0.17071720 1.39822689
v -0.44500004 0.08398974 1.57785163
v -0.49957249 -0.12282784 1.49937215
v -0.53164758 -0.14650407 1.46429026
v -0.00000000 0.20154011 1.38249659
v -0.00000000 0.17279652 1.38249695
v -0.00000000 -0.17279650 1.38249695
v -0.42254297 0.06684174 1.63292975
v -0.42254297 -0.06684173 1.63292975
v -0.42066797 0.06871674 1.63292975
v -0.42066797 -0.06871673 1.63292975
v -0.47088341 -0.10223661 1.53684599
v -0.56458316 -0.17110299 1.43370715
v -0.47088341 0.10223661 1.53684599
v -0.49957249 0.12282786 1.49937214
v -0.57425696 0.17071720 1.39822689
v -0.00000000 0.20154011 1.38249659
v -0.00000000 -0.17279650 1.38249695
v -0.57425696 -0.17071718 1.39822689
v -0.53164758 0.14650408 1.46429026
v -0.56457854 0.17110512 1.43370716
v -0.57425696 -0.17071718 1.39822689
v -0.57425696 0.17071720 1.39822689
v -0.00000000 0.17279652 1.38249695
v 0.42223047 0.06840423 1.63261722
v 0.42223047 -0.06840422 1.63261722
v -0.42223047 -0.06840423 1.63261725
v -0.42223047 0.06840424 1.63261725
vt 0.62065154 0.20548874
vt 0.00984637 0.20548874
vt 0.62065154 0.19529134
vt 0.00984637 0.19529134
vt 0.62065154 0.21568632
vt 0.00984637 0.21568632
vt 0.00984637 0.15450150
vt 0.62065154 0.15450150
vt 0.62065154 0.16469884
vt 0.00984637 0.16469902
vt 0.00984637 0.17489648
vt 0.62065154 0.17489636
vt 0.62065154 0.18509382
vt 0.00984637 0.18509388
vt 0.62559521 0.20871168
vt 0.85339046 0.20871156
vt 0.83720905 0.17950958
vt 0.64177656 0.17950958
vt 0.69218630 0.07034051
vt 0.77854043 0.04498547
vt 0.70044452 0.04498547
vt 0.78679919 0.07034051
vt 0.35987774 0.44795465
vt 0.61607718 0.44795597
vt 0.60415262 0.42420840
vt 0.35987785 0.42420709
vt 0.65622485 0.15308642
vt 0.82276058 0.15308625
vt 0.80918223 0.12573296
vt 0.66980338 0.12573314
vt 0.79730242 0.09839994
vt 0.68168306 0.09839994
vt 0.40818763 0.14183152
vt 0.26361725 0.03816277
vt 0.21290864 0.14183152
vt 0.35747910 0.03816277
vt 0.25487474 0.75769579
vt 0.02986254 0.75769579
vt 0.02946162 0.76408315
vt 0.25527561 0.76408315
vt 0.67172641 0.40598631
vt 0.86501843 0.40598631
vt 0.86460215 0.39806437
vt 0.67214280 0.39806437
vt 0.89986086 0.98324865
vt 0.97524470 0.97789884
vt 0.90008104 0.97789896
vt 0.97546482 0.98324859
vt 0.10367947 0.60060024
vt 0.35987896 0.60060394
vt 0.11560448 0.57685280
vt 0.35987929 0.57685643
vt 0.35987735 0.52311647
vt 0.66592646 0.52311802
vt 0.64751911 0.49875027
vt 0.35987750 0.49874878
vt 0.33124393 0.72922879
vt 0.64979917 0.72922879
vt 0.63652748 0.74514395
vt 0.33124393 0.74514413
vt 0.64979917 0.98349619
vt 0.33124393 0.98349637
vt 0.63652748 0.96758085
vt 0.33124393 0.96758103
vt 0.65167588 0.73147929
vt 0.65167588 0.98124546
vt 0.63840413 0.96533012
vt 0.63840413 0.74739468
vt 0.71392518 0.72083998
vt 0.71392518 0.98321897
vt 0.80671942 0.98321897
vt 0.80671942 0.72083998
vt 0.06380088 0.84745407
vt 0.02938804 0.80527472
vt 0.02938821 0.88174313
vt 0.06380088 0.83956313
vt 0.07190333 0.84748292
vt 0.27154586 0.88259101
vt 0.27154261 0.80443746
vt 0.07190333 0.83953452
vt 0.35987759 0.47394723
vt 0.63098878 0.47394848
vt 0.35987708 0.57148707
vt 0.70677775 0.57148874
vt 0.68528962 0.54621577
vt 0.35987723 0.54621410
vt 0.08876736 0.62659246
vt 0.35987860 0.62659639
vt 0.07223647 0.65139377
vt 0.35987824 0.65139800
vt 0.34256402 0.42028606
vt 0.67383087 0.42028606
vt 0.60581183 0.32700419
vt 0.34256402 0.32700419
vt 0.02162836 0.01474780
vt 0.36334196 0.02113271
vt 0.36334214 0.01474786
vt 0.02105569 0.02113265
vt 0.65424043 0.43339151
vt 0.98064840 0.44130528
vt 0.98064840 0.43339151
vt 0.65365130 0.44130540
vt 0.50775945 0.77476794
vt 0.26858380 0.76939332
vt 0.26858395 0.77477199
vt 0.50748301 0.76940101
vt 0.87666827 0.62959743
vt 0.87666827 0.98466498
vt 0.88460326 0.62959743
vt 0.88460326 0.98466498
vt 0.84135443 0.98466498
vt 0.83320647 0.62960398
vt 0.83320647 0.98466498
vt 0.84135443 0.62960398
vt 0.86293042 0.98466498
vt 0.86293042 0.62960184
vt 0.85493755 0.98466498
vt 0.85493731 0.62960184
vt 0.81962341 0.62959880
vt 0.81147546 0.98466498
vt 0.81962341 0.98466498
vt 0.81147546 0.62959880
vt 0.02916273 0.90864336
vt 0.59139943 0.90864336
vt 0.59139943 0.89903176
vt 0.02916273 0.89903176
vt 0.59139943 0.91968423
vt 0.02916273 0.91968423
vt 0.02916273 0.93071890
vt 0.59139943 0.93071890
vt 0.05382871 0.67576122
vt 0.35987794 0.67576575
vt 0.01297659 0.72413123
vt 0.35987720 0.72413623
vt 0.03446506 0.69885862
vt 0.35987759 0.69886339
vt 0.01129727 0.32308501
vt 0.34256425 0.32308501
vt 0.07931631 0.22980309
vt 0.34256420 0.22980309
vt 0.84510279 0.02644134
vt 0.50338715 0.03282654
vt 0.84567559 0.03282636
vt 0.50338715 0.02644151
vt 0.95197618 0.44520366
vt 0.62555546 0.45311695
vt 0.95256531 0.45311695
vt 0.62555546 0.44520336
vt 0.02944188 0.78552973
vt 0.26858482 0.78009248
vt 0.02971802 0.78016275
vt 0.26858503 0.78547120
vt 0.62065154 0.22588384
vt 0.00984637 0.22588384
vt 0.62065154 0.14430392
vt 0.00984637 0.14430392
vt 0.65215510 0.37779689
vt 0.86376905 0.34859508
vt 0.66833657 0.34859490
vt 0.87995070 0.37779707
vt 0.80510116 0.21407092
vt 0.71874654 0.23942590
vt 0.81335956 0.23942590
vt 0.72700536 0.21407092
vt 0.11560300 0.42420578
vt 0.10367828 0.44795328
vt 0.68278503 0.32217157
vt 0.84932095 0.32217169
vt 0.69636345 0.29481816
vt 0.83574229 0.29481834
vt 0.70824331 0.26748538
vt 0.82386255 0.26748538
vt 0.01129413 0.14183152
vt 0.15586436 0.03816265
vt 0.06200266 0.03816265
vt 0.20657291 0.14183152
vt 0.90599555 0.42950457
vt 0.68058258 0.42311770
vt 0.68018168 0.42950457
vt 0.90559459 0.42311722
vt 0.68017733 0.41780537
vt 0.87346876 0.41780537
vt 0.68059397 0.40988350
vt 0.87305230 0.40988350
vt 0.97519279 0.96724415
vt 0.90002900 0.96724415
vt 0.97541291 0.97259384
vt 0.89980888 0.97259384
vt 0.60415411 0.57685983
vt 0.61607856 0.60060763
vt 0.07223579 0.49874741
vt 0.05382821 0.52311492
vt 0.33124393 0.74514413
vt 0.02596047 0.74514413
vt 0.33124393 0.72922879
vt 0.01268871 0.72922879
vt 0.02596047 0.96758103
vt 0.33124393 0.96758103
vt 0.01268871 0.98349637
vt 0.01081172 0.98124564
vt 0.01081172 0.73147970
vt 0.02408348 0.96533030
vt 0.02408348 0.74739492
vt 0.80671942 0.45846105
vt 0.71392518 0.45846105
vt 0.47928652 0.84745383
vt 0.51369941 0.80527329
vt 0.47928652 0.83956289
vt 0.51369935 0.88174337
vt 0.47118405 0.84748274
vt 0.47118405 0.83953422
vt 0.08876643 0.47394580
vt 0.03446480 0.54621238
vt 0.01297658 0.57148528
vt 0.63098985 0.62660027
vt 0.64752001 0.65140218
vt 0.07931631 0.32700419
vt 0.01129727 0.42028606
vt 0.36334267 0.02113277
vt 0.70505643 0.01474768
vt 0.70562905 0.02113265
vt 0.65935916 0.39112818
vt 0.98577338 0.38321465
vt 0.65935916 0.38321465
vt 0.98636252 0.39112818
vt 0.02940835 0.77477872
vt 0.02968464 0.76941156
vt 0.88753372 0.62959802
vt 0.88753372 0.98466498
vt 0.89546871 0.98466498
vt 0.89546871 0.62959802
vt 0.84407192 0.98466498
vt 0.85221982 0.62960202
vt 0.84407192 0.62960202
vt 0.85221982 0.98466498
vt 0.86580276 0.62960184
vt 0.87379569 0.98466498
vt 0.87379569 0.62960184
vt 0.86580276 0.98466498
vt 0.83048886 0.98466498
vt 0.83048886 0.62959886
vt 0.82234097 0.62959886
vt 0.82234097 0.98466498
vt 0.02916273 0.96389407
vt 0.59139943 0.96389407
vt 0.59139943 0.95281577
vt 0.02916273 0.95281577
vt 0.58988333 0.78942347
vt 0.02795546 0.78942370
vt 0.02795546 0.80050814
vt 0.58988333 0.80050802
vt 0.02916273 0.89613974
vt 0.59139943 0.89613974
vt 0.59139943 0.88650888
vt 0.02916273 0.88650888
vt 0.59139943 0.94175959
vt 0.02916273 0.94175959
vt 0.66592711 0.67577010
vt 0.68529016 0.69886804
vt 0.70677781 0.72414124
vt 0.60581225 0.22980309
vt 0.67383122 0.32308501
vt 0.16167203 0.02644145
vt 0.16109933 0.03282654
vt 0.63295603 0.76407224
vt 0.30654564 0.75615877
vt 0.30595666 0.76407278
vt 0.63295603 0.75615877
vt 0.50772834 0.78550589
vt 0.50745171 0.78013897
vt 0.85514390 0.20889276
vt 0.85439879 0.21015745
vt 0.85584462 0.21015745
vt 0.62458682 0.21015751
vt 0.62384170 0.20889282
vt 0.62314093 0.21015751
vt 0.77814484 0.04354453
vt 0.77959043 0.04354453
vt 0.78003806 0.04491484
vt 0.69939500 0.04354453
vt 0.70084059 0.04354453
vt 0.69894737 0.04491484
vt 0.60504347 0.42276096
vt 0.60569316 0.42404944
vt 0.60359514 0.42276096
vt 0.35838261 0.03671700
vt 0.35901624 0.03801650
vt 0.35693687 0.03671700
vt 0.26271376 0.03671700
vt 0.26208013 0.03801650
vt 0.26415950 0.03671700
vt 0.02853395 0.75628120
vt 0.02994851 0.75628120
vt 0.02844534 0.75769293
vt 0.02804406 0.76408595
vt 0.02795546 0.76549774
vt 0.02937002 0.76549774
vt 0.25669318 0.76408595
vt 0.25678176 0.76549774
vt 0.25536719 0.76549774
vt 0.25620329 0.75628120
vt 0.25478873 0.75628120
vt 0.25629190 0.75769293
vt 0.67164952 0.40741116
vt 0.67029935 0.40598822
vt 0.67022461 0.40741116
vt 0.86644542 0.40598822
vt 0.86509538 0.40741116
vt 0.86652017 0.40741116
vt 0.97682744 0.98324859
vt 0.97545987 0.98466492
vt 0.97687453 0.98466492
vt 0.97660244 0.97648251
vt 0.97519761 0.97648251
vt 0.97664952 0.97789884
vt 0.89867127 0.97648263
vt 0.90007609 0.97648263
vt 0.89862418 0.97789896
vt 0.89844626 0.98324865
vt 0.89981377 0.98466498
vt 0.89839917 0.98466498
vt 0.11471361 0.57540536
vt 0.11406394 0.57669377
vt 0.11616201 0.57540542
vt 0.65117568 0.72806013
vt 0.65140128 0.72955823
vt 0.65232295 0.72844303
vt 0.63699824 0.74682295
vt 0.63591880 0.74635863
vt 0.63774073 0.74593973
vt 0.63699824 0.96590221
vt 0.63591880 0.96636641
vt 0.63774073 0.96678519
vt 0.65140128 0.98316652
vt 0.65117568 0.98466480
vt 0.65232295 0.98428190
vt 0.63738453 0.74811542
vt 0.65264171 0.72981727
vt 0.65264171 0.98290765
vt 0.63738453 0.96460956
vt 0.71392518 0.98466498
vt 0.71247911 0.98321897
vt 0.71247911 0.98466498
vt 0.80671942 0.98466498
vt 0.80816549 0.98321897
vt 0.80816549 0.98466498
vt 0.70846063 0.57293606
vt 0.70897043 0.57183337
vt 0.70990789 0.57293606
vt 0.60654968 0.32555729
vt 0.60510278 0.32555729
vt 0.60739946 0.32672840
vt 0.02033166 0.01332957
vt 0.02020497 0.01474208
vt 0.02174990 0.01332957
vt 0.01950455 0.02255082
vt 0.01963124 0.02113837
vt 0.02092277 0.02255082
vt 0.65222144 0.44130921
vt 0.65354121 0.44273102
vt 0.65211552 0.44273102
vt 0.50914752 0.77476931
vt 0.50779086 0.77619064
vt 0.50921243 0.77619058
vt 0.50883752 0.76797980
vt 0.50890243 0.76940107
vt 0.50741816 0.76797974
vt 0.01129363 0.72557843
vt 0.01078386 0.72447586
vt 0.00984637 0.72557843
vt 0.07857848 0.22835624
vt 0.08002537 0.22835624
vt 0.07772876 0.22952735
vt 0.84722668 0.03424454
vt 0.84709996 0.03283197
vt 0.84580839 0.03424454
vt 0.84639949 0.02502310
vt 0.84652615 0.02643567
vt 0.84498125 0.02502310
vt 0.95399523 0.45312095
vt 0.95267540 0.45454264
vt 0.95410115 0.45454264
vt 0.02832992 0.77874047
vt 0.02826510 0.78016174
vt 0.02974931 0.77874005
vt 0.02802028 0.78553009
vt 0.02937706 0.78695101
vt 0.02795546 0.78695130
vt 0.65040165 0.37797803
vt 0.65114683 0.37924272
vt 0.64970094 0.37924272
vt 0.88095903 0.37924302
vt 0.88170403 0.37797838
vt 0.88240492 0.37924302
vt 0.72550774 0.21400017
vt 0.72595537 0.21262991
vt 0.72740102 0.21262991
vt 0.80659837 0.21400017
vt 0.80615073 0.21262991
vt 0.80470508 0.21262991
vt 0.11616055 0.42275840
vt 0.11471215 0.42275840
vt 0.11406250 0.42404681
vt 0.15532212 0.03671688
vt 0.15676785 0.03671688
vt 0.15740147 0.03801638
vt 0.06109913 0.03671688
vt 0.06254487 0.03671688
vt 0.06046551 0.03801638
vt 0.90701169 0.42311442
vt 0.90692312 0.42170268
vt 0.90550858 0.42170268
vt 0.67916536 0.42311442
vt 0.67925394 0.42170268
vt 0.68066853 0.42170268
vt 0.67867553 0.43091917
vt 0.68009007 0.43091917
vt 0.67876416 0.42950743
vt 0.90750170 0.43091917
vt 0.90608716 0.43091917
vt 0.90741313 0.42950743
vt 0.67875046 0.41780734
vt 0.68010038 0.41923028
vt 0.67867553 0.41923028
vt 0.87354571 0.41923028
vt 0.87489575 0.41780734
vt 0.87497056 0.41923028
vt 0.89981377 0.97401017
vt 0.89844626 0.97259384
vt 0.89839917 0.97401017
vt 0.97545999 0.97401017
vt 0.97682756 0.97259384
vt 0.97687465 0.97401017
vt 0.97664964 0.96724415
vt 0.97660255 0.96582782
vt 0.97519773 0.96582782
vt 0.89862418 0.96724415
vt 0.89867127 0.96582782
vt 0.90007609 0.96582782
vt 0.60569471 0.57670081
vt 0.60504502 0.57541245
vt 0.60359669 0.57541239
vt 0.01131216 0.72806036
vt 0.01108665 0.72955847
vt 0.01016486 0.72844326
vt 0.02474690 0.74593997
vt 0.02548970 0.74682307
vt 0.02656912 0.74635875
vt 0.02474690 0.96678519
vt 0.02548970 0.96590221
vt 0.02656912 0.96636653
vt 0.01108665 0.98316669
vt 0.01131216 0.98466498
vt 0.01016486 0.98428190
vt 0.02510333 0.74811542
vt 0.02510360 0.96460974
vt 0.00984637 0.98290783
vt 0.00984637 0.72981727
vt 0.71247911 0.45846105
vt 0.71392518 0.45701504
vt 0.71247911 0.45701504
vt 0.80816549 0.45846105
vt 0.80671942 0.45701504
vt 0.80816549 0.45701504
vt 0.01129363 0.57293248
vt 0.01078385 0.57182992
vt 0.00984637 0.57293248
vt 0.07772876 0.32672840
vt 0.07857849 0.32555729
vt 0.08002539 0.32555729
vt 0.70647985 0.01474196
vt 0.70635313 0.01332945
vt 0.70493490 0.01332945
vt 0.70576203 0.02255082
vt 0.70718026 0.02255082
vt 0.70705354 0.02113837
vt 0.98647261 0.39255393
vt 0.98779255 0.39113218
vt 0.98789829 0.39255393
vt 0.02937705 0.77620149
vt 0.02802031 0.77478015
vt 0.02795546 0.77620149
vt 0.02974948 0.76799029
vt 0.02833011 0.76799041
vt 0.02826526 0.76941168
vt 0.70897055 0.72448599
vt 0.70846075 0.72558856
vt 0.70990801 0.72558856
vt 0.60739976 0.22952735
vt 0.60655004 0.22835624
vt 0.60510319 0.22835624
vt 0.16179354 0.02502334
vt 0.16037530 0.02502334
vt 0.16024859 0.02643579
vt 0.16096644 0.03424466
vt 0.15954821 0.03424466
vt 0.15967490 0.03283215
vt 0.30584657 0.76549840
vt 0.30452672 0.76407659
vt 0.30442089 0.76549840
vt 0.50779325 0.78692710
vt 0.50914997 0.78550607
vt 0.50921488 0.78692734
vt 0.50742030 0.77871627
vt 0.50883979 0.77871656
vt 0.50890470 0.78013784
vt 0.83886200 0.17950958
vt 0.64012361 0.17950958
vt 0.69064188 0.07034051
vt 0.78834373 0.07034051
vt 0.35987785 0.42275971
vt 0.61774778 0.44795597
vt 0.82440865 0.15308625
vt 0.65457684 0.15308642
vt 0.81079715 0.12573296
vt 0.66818839 0.12573314
vt 0.68010581 0.09839994
vt 0.79887974 0.09839994
vt 0.40963534 0.14183152
vt 0.21146092 0.14183152
vt 0.67071605 0.39806437
vt 0.86602896 0.39806437
vt 0.10200898 0.60060024
vt 0.35987931 0.57540905
vt 0.64933550 0.49875027
vt 0.66781551 0.52311802
vt 0.33124393 0.74635863
vt 0.33124393 0.72806013
vt 0.33124393 0.98466480
vt 0.33124393 0.96636653
vt 0.80816549 0.72083998
vt 0.71247911 0.72083998
vt 0.02795546 0.80527472
vt 0.02795551 0.88174254
vt 0.02939459 0.88317764
vt 0.27154374 0.88403654
vt 0.02939454 0.80383956
vt 0.27154365 0.80298042
vt 0.63273042 0.47394848
vt 0.68718928 0.54621577
vt 0.35987708 0.57293427
vt 0.08702567 0.62659240
vt 0.07042009 0.65139377
vt 0.67528164 0.42028606
vt 0.34256402 0.32555729
vt 0.36334190 0.02255100
vt 0.36334208 0.01332957
vt 0.65281081 0.43339151
vt 0.98064840 0.44273102
vt 0.26858377 0.76796931
vt 0.26858398 0.77619600
vt 0.59139943 0.89758718
vt 0.02916273 0.89758718
vt 0.05193973 0.67576122
vt 0.03256538 0.69885862
vt 0.35987717 0.72558355
vt 0.34256420 0.22835624
vt 0.00984637 0.32308501
vt 0.50338715 0.03424466
vt 0.50338715 0.02502340
vt 0.62555546 0.45454264
vt 0.95340586 0.44520366
vt 0.26858473 0.77866840
vt 0.26858512 0.78689522
vt 0.86542201 0.34859508
vt 0.66668367 0.34859490
vt 0.71720219 0.23942590
vt 0.81490397 0.23942590
vt 0.10200778 0.44795328
vt 0.85096896 0.32217169
vt 0.68113697 0.32217157
vt 0.83735728 0.29481834
vt 0.69474852 0.29481816
vt 0.70666605 0.26748538
vt 0.82543987 0.26748538
vt 0.20802061 0.14183152
vt 0.00984637 0.14183152
vt 0.67916721 0.40988350
vt 0.87447912 0.40988350
vt 0.61774898 0.60060763
vt 0.07041941 0.49874735
vt 0.05193923 0.52311492
vt 0.33124393 0.72806013
vt 0.33124393 0.74635863
vt 0.33124393 0.96636653
vt 0.51513195 0.88174224
vt 0.51513195 0.80527443
vt 0.51369286 0.88317740
vt 0.51369286 0.80383933
vt 0.08702476 0.47394574
vt 0.03256512 0.54621238
vt 0.63273156 0.62660027
vt 0.64933640 0.65140224
vt 0.00984637 0.42028606
vt 0.36334273 0.02255100
vt 0.65935916 0.39255393
vt 0.98720306 0.38321465
vt 0.66781616 0.67577016
vt 0.68718982 0.69886810
vt 0.67528206 0.32308501
vt 0.30511603 0.75615877
vt 0.63295603 0.76549792
vt 0.02795552 0.88317251
vt 0.02795546 0.80384469
vt 0.51513195 0.80384439
vt 0.51513195 0.88317227
f 1/1 2/2 3/3
f 3/3 2/2 4/4
f 5/5 6/6 1/1
f 1/1 6/6 2/2
f 7/7 8/8 9/9
f 9/9 10/10 7/7
f 11/11 12/12 13/13
f 13/13 14/14 11/11
f 3/3 4/4 13/13
f 13/13 4/4 14/14
f 15/15 16/16 17/17
f 15/15 17/17 18/18
f 19/19 20/20 21/21
f 20/20 19/19 22/22
f 23/23 24/24 25/25
f 25/25 26/26 23/23
f 17/17 27/27 18/18
f 27/27 17/17 28/28
f 29/29 30/30 27/27
f 29/29 27/27 28/28
f 31/31 19/19 32/32
f 19/19 31/31 22/22
f 30/30 29/29 31/31
f 30/30 31/31 32/32
f 33/33 34/34 35/35
f 34/34 33/33 36/36
f 37/37 38/38 39/39
f 37/37 39/39 40/40
f 41/41 42/42 43/43
f 41/41 43/43 44/44
f 45/45 46/46 47/47
f 46/46 45/45 48/48
f 49/49 50/50 51/51
f 51/51 50/50 52/52
f 53/53 54/54 55/55
f 55/55 56/56 53/53
f 57/57 58/58 59/59
f 59/59 60/60 57/57
f 61/61 62/62 63/63
f 63/63 62/62 64/64
f 65/65 66/66 67/67
f 65/65 67/67 68/68
f 69/69 70/70 71/71
f 71/71 72/72 69/69
f 73/73 74/74 75/75
f 74/74 73/73 76/76
f 73/73 75/75 77/77
f 75/75 78/78 77/77
f 79/79 77/77 78/78
f 77/77 79/79 80/80
f 80/80 74/74 76/76
f 79/79 74/74 80/80
f 81/81 82/82 24/24
f 24/24 23/23 81/81
f 56/56 55/55 82/82
f 82/82 81/81 56/56
f 83/83 84/84 85/85
f 85/85 86/86 83/83
f 86/86 85/85 54/54
f 54/54 53/53 86/86
f 87/87 88/88 49/49
f 49/49 88/88 50/50
f 89/89 90/90 87/87
f 87/87 90/90 88/88
f 91/91 92/92 93/93
f 93/93 94/94 91/91
f 95/95 96/96 97/97
f 96/96 95/95 98/98
f 99/99 100/100 101/101
f 100/100 99/99 102/102
f 103/103 104/104 105/105
f 104/104 103/103 106/106
f 107/107 108/108 109/109
f 109/109 108/108 110/110
f 111/111 112/112 113/113
f 112/112 111/111 114/114
f 115/115 116/116 117/117
f 117/117 116/116 118/118
f 119/119 120/120 121/121
f 120/120 119/119 122/122
f 123/123 124/124 125/125
f 125/125 126/126 123/123
f 124/124 123/123 127/127
f 127/127 123/123 128/128
f 129/129 130/130 127/127
f 127/127 128/128 129/129
f 131/131 132/132 89/89
f 89/89 132/132 90/90
f 133/133 134/134 135/135
f 135/135 134/134 136/136
f 135/135 136/136 131/131
f 131/131 136/136 132/132
f 137/137 138/138 139/139
f 139/139 138/138 140/140
f 141/141 142/142 143/143
f 142/142 141/141 144/144
f 145/145 146/146 147/147
f 146/146 145/145 148/148
f 149/149 150/150 151/151
f 150/150 149/149 152/152
f 153/153 6/6 5/5
f 6/6 153/153 154/154
f 8/8 7/7 155/155
f 155/155 7/7 156/156
f 12/12 11/11 9/9
f 9/9 11/11 10/10
f 157/157 158/158 159/159
f 158/158 157/157 160/160
f 161/161 162/162 163/163
f 162/162 161/161 164/164
f 26/26 165/165 23/23
f 23/23 165/165 166/166
f 158/158 167/167 159/159
f 167/167 158/158 168/168
f 169/169 168/168 170/170
f 167/167 168/168 169/169
f 171/171 172/172 162/162
f 162/162 172/172 163/163
f 169/169 172/172 171/171
f 172/172 169/169 170/170
f 173/173 174/174 175/175
f 174/174 173/173 176/176
f 177/177 178/178 179/179
f 178/178 177/177 180/180
f 181/181 182/182 183/183
f 184/184 183/183 182/182
f 185/185 186/186 187/187
f 188/188 187/187 186/186
f 50/50 189/189 52/52
f 50/50 190/190 189/189
f 56/56 191/191 53/53
f 192/192 53/53 191/191
f 193/193 194/194 195/195
f 196/196 195/195 194/194
f 62/62 197/197 198/198
f 62/62 199/199 197/197
f 200/200 201/201 202/202
f 202/202 201/201 203/203
f 72/72 204/204 69/69
f 69/69 204/204 205/205
f 206/206 207/207 208/208
f 207/207 206/206 209/209
f 78/78 209/209 210/210
f 210/210 209/209 206/206
f 78/78 210/210 79/79
f 79/79 210/210 211/211
f 207/207 79/79 211/211
f 207/207 211/211 208/208
f 23/23 166/166 81/81
f 81/81 166/166 212/212
f 81/81 212/212 56/56
f 56/56 212/212 191/191
f 213/213 83/83 86/86
f 214/214 83/83 213/213
f 53/53 192/192 86/86
f 213/213 86/86 192/192
f 88/88 190/190 50/50
f 88/88 215/215 190/190
f 90/90 215/215 88/88
f 90/90 216/216 215/215
f 217/217 91/91 94/94
f 218/218 91/91 217/217
f 219/219 220/220 97/97
f 220/220 219/219 221/221
f 222/222 223/223 224/224
f 223/223 222/222 225/225
f 104/104 226/226 105/105
f 226/226 104/104 227/227
f 228/228 229/229 230/230
f 230/230 231/231 228/228
f 232/232 233/233 234/234
f 233/233 232/232 235/235
f 236/236 237/237 238/238
f 237/237 236/236 239/239
f 240/240 241/241 242/242
f 240/240 242/242 243/243
f 244/244 245/245 246/246
f 246/246 247/247 244/244
f 248/248 249/249 250/250
f 250/250 251/251 248/248
f 252/252 253/253 254/254
f 254/254 255/255 252/252
f 130/130 129/129 256/256
f 256/256 129/129 257/257
f 247/247 246/246 256/256
f 256/256 257/257 247/247
f 216/216 90/90 132/132
f 132/132 258/258 216/216
f 259/259 136/136 134/134
f 134/134 260/260 259/259
f 258/258 132/132 136/136
f 136/136 259/259 258/258
f 261/261 140/140 138/138
f 138/138 262/262 261/261
f 142/142 263/263 264/264
f 263/263 142/142 144/144
f 265/265 266/266 267/267
f 266/266 265/265 268/268
f 150/150 269/269 270/270
f 269/269 150/150 152/152
f 271/271 272/272 273/273
f 272/272 271/271 16/16
f 274/274 275/275 276/276
f 275/275 274/274 15/15
f 277/277 20/20 278/278
f 20/20 279/279 278/278
f 280/280 21/21 281/281
f 21/21 280/280 282/282
f 283/283 25/25 284/284
f 25/25 283/283 285/285
f 286/286 36/36 287/287
f 36/36 286/286 288/288
f 289/289 290/290 34/34
f 34/34 291/291 289/289
f 292/292 38/38 293/293
f 38/38 292/292 294/294
f 295/295 296/296 39/39
f 39/39 296/296 297/297
f 298/298 40/40 299/299
f 40/40 300/300 299/299
f 301/301 302/302 37/37
f 37/37 303/303 301/301
f 304/304 305/305 306/306
f 305/305 304/304 41/41
f 307/307 308/308 309/309
f 308/308 307/307 42/42
f 310/310 311/311 312/312
f 311/311 310/310 48/48
f 313/313 314/314 46/46
f 46/46 315/315 313/313
f 316/316 47/47 317/317
f 47/47 316/316 318/318
f 319/319 320/320 45/45
f 320/320 319/319 321/321
f 322/322 323/323 51/51
f 322/322 51/51 324/324
f 325/325 326/326 58/58
f 326/326 325/325 327/327
f 328/328 329/329 59/59
f 59/59 330/330 328/328
f 331/331 63/63 332/332
f 63/63 331/331 333/333
f 334/334 335/335 61/61
f 335/335 334/334 336/336
f 328/328 330/330 68/68
f 68/68 337/337 328/328
f 338/338 326/326 327/327
f 326/326 338/338 65/65
f 334/334 339/339 336/336
f 339/339 334/334 66/66
f 331/331 67/67 333/333
f 67/67 331/331 340/340
f 341/341 342/342 343/343
f 342/342 341/341 70/70
f 344/344 345/345 71/71
f 345/345 344/344 346/346
f 347/347 348/348 84/84
f 348/348 347/347 349/349
f 350/350 351/351 93/93
f 93/93 352/352 350/350
f 353/353 354/354 95/95
f 353/353 95/95 355/355
f 356/356 98/98 357/357
f 98/98 356/356 358/358
f 359/359 360/360 102/102
f 360/360 359/359 361/361
f 362/362 363/363 364/364
f 363/363 362/362 103/103
f 365/365 106/106 366/366
f 106/106 365/365 367/367
f 368/368 369/369 370/370
f 369/369 368/368 133/133
f 371/371 139/139 372/372
f 139/139 371/371 373/373
f 374/374 375/375 143/143
f 374/374 143/143 376/376
f 377/377 141/141 378/378
f 141/141 377/377 379/379
f 380/380 381/381 382/382
f 381/381 380/380 147/147
f 383/383 384/384 151/151
f 151/151 385/385 383/383
f 386/386 387/387 149/149
f 387/387 386/386 388/388
f 389/389 390/390 157/157
f 390/390 389/389 391/391
f 392/392 393/393 160/160
f 393/393 392/392 394/394
f 395/395 164/164 396/396
f 164/164 397/397 396/396
f 398/398 399/399 161/161
f 161/161 399/399 400/400
f 165/165 401/401 402/402
f 165/165 402/402 403/403
f 404/404 174/174 405/405
f 174/174 406/406 405/405
f 407/407 175/175 408/408
f 175/175 407/407 409/409
f 410/410 411/411 180/180
f 180/180 411/411 412/412
f 413/413 178/178 414/414
f 178/178 415/415 414/414
f 416/416 417/417 179/179
f 179/179 418/418 416/416
f 419/419 177/177 420/420
f 177/177 419/419 421/421
f 422/422 423/423 181/181
f 423/423 422/422 424/424
f 425/425 426/426 182/182
f 426/426 425/425 427/427
f 428/428 429/429 430/430
f 429/429 428/428 188/188
f 431/431 432/432 187/187
f 432/432 431/431 433/433
f 434/434 435/435 185/185
f 185/185 435/435 436/436
f 437/437 186/186 438/438
f 186/186 439/439 438/438
f 440/440 441/441 189/189
f 442/442 189/189 441/441
f 443/443 444/444 445/445
f 444/444 443/443 196/196
f 446/446 194/194 447/447
f 194/194 448/448 447/447
f 449/449 450/450 197/197
f 197/197 450/450 451/451
f 452/452 453/453 454/454
f 453/453 452/452 199/199
f 455/455 203/203 447/447
f 203/203 446/446 447/447
f 456/456 450/450 202/202
f 202/202 450/450 449/449
f 452/452 457/457 200/200
f 457/457 452/452 454/454
f 458/458 444/444 201/201
f 444/444 458/458 445/445
f 459/459 460/460 461/461
f 460/460 459/459 205/205
f 462/462 463/463 204/204
f 463/463 462/462 464/464
f 465/465 466/466 467/467
f 466/466 465/465 214/214
f 468/468 217/217 469/469
f 217/217 470/470 469/469
f 471/471 472/472 220/220
f 473/473 220/220 472/472
f 474/474 475/475 221/221
f 221/221 475/475 476/476
f 477/477 478/478 225/225
f 478/478 477/477 479/479
f 480/480 481/481 482/482
f 481/481 480/480 226/226
f 483/483 484/484 227/227
f 227/227 484/484 485/485
f 486/486 487/487 488/488
f 487/487 486/486 260/260
f 489/489 490/490 261/261
f 491/491 261/261 490/490
f 263/263 492/492 493/493
f 263/263 493/493 494/494
f 495/495 264/264 496/496
f 264/264 497/497 496/496
f 498/498 499/499 500/500
f 499/499 498/498 267/267
f 501/501 502/502 269/269
f 502/502 501/501 503/503
f 504/504 270/270 505/505
f 270/270 506/506 505/505
f 507/507 16/16 271/271
f 16/16 507/507 17/17
f 508/508 275/275 15/15
f 508/508 15/15 18/18
f 16/16 15/15 274/274
f 16/16 274/274 272/272
f 277/277 281/281 21/21
f 277/277 21/21 20/20
f 282/282 19/19 21/21
f 19/19 282/282 509/509
f 279/279 22/22 510/510
f 22/22 279/279 20/20
f 285/285 26/26 25/25
f 26/26 285/285 511/511
f 284/284 24/24 512/512
f 24/24 284/284 25/25
f 513/513 17/17 507/507
f 17/17 513/513 28/28
f 514/514 508/508 18/18
f 514/514 18/18 27/27
f 515/515 28/28 513/513
f 28/28 515/515 29/29
f 516/516 514/514 27/27
f 516/516 27/27 30/30
f 509/509 32/32 19/19
f 32/32 509/509 517/517
f 510/510 31/31 518/518
f 31/31 510/510 22/22
f 517/517 30/30 32/32
f 30/30 517/517 516/516
f 29/29 518/518 31/31
f 518/518 29/29 515/515
f 287/287 33/33 519/519
f 33/33 287/287 36/36
f 36/36 291/291 34/34
f 291/291 36/36 288/288
f 290/290 520/520 35/35
f 290/290 35/35 34/34
f 294/294 39/39 38/38
f 39/39 294/294 295/295
f 40/40 39/39 297/297
f 40/40 297/297 300/300
f 303/303 40/40 298/298
f 40/40 303/303 37/37
f 302/302 293/293 38/38
f 302/302 38/38 37/37
f 521/521 305/305 41/41
f 41/41 44/44 521/521
f 304/304 308/308 42/42
f 304/304 42/42 41/41
f 522/522 42/42 307/307
f 42/42 522/522 43/43
f 310/310 315/315 46/46
f 46/46 48/48 310/310
f 314/314 317/317 47/47
f 314/314 47/47 46/46
f 318/318 45/45 47/47
f 45/45 318/318 319/319
f 45/45 311/311 48/48
f 311/311 45/45 320/320
f 49/49 323/323 523/523
f 323/323 49/49 51/51
f 324/324 52/52 524/524
f 52/52 324/324 51/51
f 525/525 54/54 526/526
f 54/54 525/525 55/55
f 330/330 58/58 326/326
f 58/58 330/330 59/59
f 329/329 60/60 59/59
f 60/60 329/329 527/527
f 528/528 325/325 58/58
f 58/58 57/57 528/528
f 333/333 61/61 63/63
f 333/333 334/334 61/61
f 61/61 529/529 62/62
f 529/529 61/61 335/335
f 332/332 64/64 530/530
f 64/64 332/332 63/63
f 330/330 326/326 65/65
f 330/330 65/65 68/68
f 338/338 339/339 66/66
f 338/338 66/66 65/65
f 333/333 66/66 334/334
f 66/66 333/333 67/67
f 68/68 67/67 340/340
f 68/68 340/340 337/337
f 341/341 344/344 71/71
f 341/341 71/71 70/70
f 71/71 531/531 72/72
f 531/531 71/71 345/345
f 532/532 342/342 70/70
f 70/70 69/69 532/532
f 533/533 534/534 75/75
f 533/533 75/75 74/74
f 535/535 78/78 75/75
f 78/78 535/535 536/536
f 537/537 79/79 538/538
f 79/79 537/537 74/74
f 512/512 82/82 539/539
f 82/82 512/512 24/24
f 539/539 55/55 525/525
f 55/55 539/539 82/82
f 540/540 84/84 348/348
f 84/84 540/540 85/85
f 541/541 347/347 84/84
f 84/84 83/83 541/541
f 526/526 85/85 540/540
f 85/85 526/526 54/54
f 523/523 87/87 49/49
f 87/87 523/523 542/542
f 542/542 89/89 87/87
f 89/89 542/542 543/543
f 352/352 92/92 544/544
f 92/92 352/352 93/93
f 351/351 94/94 93/93
f 94/94 351/351 545/545
f 354/354 357/357 98/98
f 354/354 98/98 95/95
f 358/358 96/96 98/98
f 96/96 358/358 546/546
f 355/355 97/97 547/547
f 97/97 355/355 95/95
f 548/548 359/359 102/102
f 548/548 102/102 99/99
f 102/102 549/549 100/100
f 549/549 102/102 360/360
f 362/362 366/366 106/106
f 362/362 106/106 103/103
f 367/367 104/104 106/106
f 104/104 367/367 550/550
f 551/551 363/363 103/103
f 103/103 105/105 551/551
f 552/552 126/126 125/125
f 126/126 552/552 553/553
f 543/543 131/131 89/89
f 131/131 543/543 554/554
f 555/555 133/133 135/135
f 555/555 369/369 133/133
f 133/133 556/556 134/134
f 556/556 133/133 368/368
f 554/554 135/135 131/131
f 135/135 554/554 555/555
f 372/372 140/140 557/557
f 140/140 372/372 139/139
f 373/373 137/137 139/139
f 373/373 558/558 137/137
f 376/376 142/142 559/559
f 142/142 376/376 143/143
f 378/378 143/143 375/375
f 143/143 378/378 141/141
f 379/379 144/144 141/141
f 144/144 379/379 560/560
f 561/561 381/381 147/147
f 147/147 146/146 561/561
f 562/562 147/147 380/380
f 147/147 562/562 145/145
f 385/385 150/150 563/563
f 150/150 385/385 151/151
f 384/384 386/386 149/149
f 384/384 149/149 151/151
f 149/149 564/564 152/152
f 564/564 149/149 387/387
f 390/390 392/392 160/160
f 390/390 160/160 157/157
f 160/160 565/565 158/158
f 565/565 160/160 393/393
f 566/566 389/389 157/157
f 157/157 159/159 566/566
f 395/395 567/567 162/162
f 162/162 164/164 395/395
f 398/398 163/163 568/568
f 163/163 398/398 161/161
f 161/161 397/397 164/164
f 397/397 161/161 400/400
f 403/403 569/569 166/166
f 166/166 165/165 403/403
f 26/26 401/401 165/165
f 401/401 26/26 511/511
f 158/158 570/570 168/168
f 570/570 158/158 565/565
f 571/571 566/566 159/159
f 159/159 167/167 571/571
f 168/168 572/572 170/170
f 572/572 168/168 570/570
f 573/573 571/571 167/167
f 167/167 169/169 573/573
f 567/567 574/574 171/171
f 171/171 162/162 567/567
f 568/568 172/172 575/575
f 172/172 568/568 163/163
f 574/574 573/573 169/169
f 169/169 171/171 574/574
f 575/575 170/170 572/572
f 170/170 575/575 172/172
f 176/176 406/406 174/174
f 406/406 176/176 576/576
f 175/175 174/174 404/404
f 175/175 404/404 408/408
f 409/409 577/577 173/173
f 173/173 175/175 409/409
f 412/412 178/178 180/180
f 178/178 412/412 415/415
f 413/413 418/418 179/179
f 179/179 178/178 413/413
f 177/177 179/179 417/417
f 177/177 417/417 420/420
f 410/410 177/177 421/421
f 177/177 410/410 180/180
f 578/578 181/181 183/183
f 181/181 578/578 422/422
f 182/182 181/181 423/423
f 182/182 423/423 425/425
f 579/579 182/182 426/426
f 182/182 579/579 184/184
f 428/428 431/431 187/187
f 428/428 187/187 188/188
f 432/432 185/185 187/187
f 185/185 432/432 434/434
f 186/186 185/185 436/436
f 186/186 436/436 439/439
f 437/437 429/429 188/188
f 188/188 186/186 437/437
f 442/442 524/524 52/52
f 52/52 189/189 442/442
f 190/190 440/440 189/189
f 440/440 190/190 580/580
f 581/581 582/582 192/192
f 192/192 191/191 581/581
f 583/583 196/196 443/443
f 196/196 583/583 195/195
f 193/193 448/448 194/194
f 448/448 193/193 584/584
f 446/446 444/444 196/196
f 196/196 194/194 446/446
f 451/451 585/585 198/198
f 198/198 197/197 451/451
f 529/529 199/199 62/62
f 529/529 453/453 199/199
f 449/449 199/199 452/452
f 199/199 449/449 197/197
f 202/202 203/203 455/455
f 202/202 455/455 456/456
f 449/449 452/452 200/200
f 200/200 202/202 449/449
f 457/457 458/458 201/201
f 457/457 201/201 200/200
f 201/201 446/446 203/203
f 446/446 201/201 444/444
f 532/532 205/205 459/459
f 205/205 532/532 69/69
f 531/531 204/204 72/72
f 204/204 531/531 462/462
f 205/205 204/204 463/463
f 205/205 463/463 460/460
f 207/207 209/209 586/586
f 207/207 586/586 587/587
f 78/78 588/588 209/209
f 588/588 78/78 536/536
f 589/589 538/538 79/79
f 79/79 207/207 589/589
f 569/569 590/590 212/212
f 212/212 166/166 569/569
f 590/590 581/581 191/191
f 191/191 212/212 590/590
f 541/541 214/214 465/465
f 214/214 541/541 83/83
f 591/591 466/466 214/214
f 214/214 213/213 591/591
f 582/582 591/591 213/213
f 213/213 192/192 582/582
f 580/580 215/215 592/592
f 215/215 580/580 190/190
f 592/592 216/216 593/593
f 216/216 592/592 215/215
f 94/94 470/470 217/217
f 470/470 94/94 545/545
f 468/468 594/594 218/218
f 218/218 217/217 468/468
f 473/473 547/547 97/97
f 97/97 220/220 473/473
f 219/219 474/474 221/221
f 474/474 219/219 595/595
f 221/221 471/471 220/220
f 471/471 221/221 476/476
f 596/596 225/225 222/222
f 225/225 596/596 477/477
f 225/225 597/597 223/223
f 597/597 225/225 478/478
f 551/551 226/226 480/480
f 226/226 551/551 105/105
f 104/104 483/483 227/227
f 483/483 104/104 550/550
f 226/226 227/227 485/485
f 226/226 485/485 481/481
f 553/553 552/552 253/253
f 253/253 252/252 553/553
f 593/593 258/258 598/598
f 258/258 593/593 216/216
f 556/556 260/260 134/134
f 556/556 487/487 260/260
f 599/599 260/260 486/486
f 260/260 599/599 259/259
f 598/598 259/259 599/599
f 259/259 598/598 258/258
f 489/489 262/262 600/600
f 262/262 489/489 261/261
f 491/491 557/557 140/140
f 140/140 261/261 491/491
f 144/144 492/492 263/263
f 492/492 144/144 560/560
f 264/264 263/263 494/494
f 264/264 494/494 497/497
f 495/495 559/559 142/142
f 142/142 264/264 495/495
f 267/267 266/266 601/601
f 267/267 601/601 499/499
f 602/602 267/267 498/498
f 267/267 602/602 265/265
f 564/564 269/269 152/152
f 269/269 564/564 501/501
f 270/270 269/269 502/502
f 270/270 502/502 506/506
f 504/504 563/563 150/150
f 150/150 270/270 504/504
f 603/603 75/75 534/534
f 75/75 603/603 535/535
f 604/604 533/533 74/74
f 74/74 537/537 604/604
f 589/589 207/207 605/605
f 207/207 587/587 605/605
f 588/588 606/606 209/209
f 209/209 606/606 586/586

